<svg id="visual" viewBox="0 0 1000 1000" width="1000" height="1000" xmlns="http://www.w3.org/2000/svg" xmlns:xlink="http://www.w3.org/1999/xlink" version="1.1"><rect x="0" y="0" width="1000" height="1000" fill="#cd3131"></rect><defs><linearGradient id="grad1_0" x1="0%" y1="0%" x2="100%" y2="100%"><stop offset="30%" stop-color="#efd5d5" stop-opacity="1"></stop><stop offset="70%" stop-color="#efd5d5" stop-opacity="1"></stop></linearGradient></defs><defs><linearGradient id="grad1_1" x1="0%" y1="0%" x2="100%" y2="100%"><stop offset="30%" stop-color="#efd5d5" stop-opacity="1"></stop><stop offset="70%" stop-color="#efbfbe" stop-opacity="1"></stop></linearGradient></defs><defs><linearGradient id="grad1_2" x1="0%" y1="0%" x2="100%" y2="100%"><stop offset="30%" stop-color="#eda9a7" stop-opacity="1"></stop><stop offset="70%" stop-color="#efbfbe" stop-opacity="1"></stop></linearGradient></defs><defs><linearGradient id="grad1_3" x1="0%" y1="0%" x2="100%" y2="100%"><stop offset="30%" stop-color="#eda9a7" stop-opacity="1"></stop><stop offset="70%" stop-color="#ea9390" stop-opacity="1"></stop></linearGradient></defs><defs><linearGradient id="grad1_4" x1="0%" y1="0%" x2="100%" y2="100%"><stop offset="30%" stop-color="#e57d78" stop-opacity="1"></stop><stop offset="70%" stop-color="#ea9390" stop-opacity="1"></stop></linearGradient></defs><defs><linearGradient id="grad1_5" x1="0%" y1="0%" x2="100%" y2="100%"><stop offset="30%" stop-color="#e57d78" stop-opacity="1"></stop><stop offset="70%" stop-color="#df6661" stop-opacity="1"></stop></linearGradient></defs><defs><linearGradient id="grad1_6" x1="0%" y1="0%" x2="100%" y2="100%"><stop offset="30%" stop-color="#d74d49" stop-opacity="1"></stop><stop offset="70%" stop-color="#df6661" stop-opacity="1"></stop></linearGradient></defs><defs><linearGradient id="grad1_7" x1="0%" y1="0%" x2="100%" y2="100%"><stop offset="30%" stop-color="#d74d49" stop-opacity="1"></stop><stop offset="70%" stop-color="#cd3131" stop-opacity="1"></stop></linearGradient></defs><defs><linearGradient id="grad2_0" x1="0%" y1="0%" x2="100%" y2="100%"><stop offset="30%" stop-color="#efd5d5" stop-opacity="1"></stop><stop offset="70%" stop-color="#efd5d5" stop-opacity="1"></stop></linearGradient></defs><defs><linearGradient id="grad2_1" x1="0%" y1="0%" x2="100%" y2="100%"><stop offset="30%" stop-color="#efbfbe" stop-opacity="1"></stop><stop offset="70%" stop-color="#efd5d5" stop-opacity="1"></stop></linearGradient></defs><defs><linearGradient id="grad2_2" x1="0%" y1="0%" x2="100%" y2="100%"><stop offset="30%" stop-color="#efbfbe" stop-opacity="1"></stop><stop offset="70%" stop-color="#eda9a7" stop-opacity="1"></stop></linearGradient></defs><defs><linearGradient id="grad2_3" x1="0%" y1="0%" x2="100%" y2="100%"><stop offset="30%" stop-color="#ea9390" stop-opacity="1"></stop><stop offset="70%" stop-color="#eda9a7" stop-opacity="1"></stop></linearGradient></defs><defs><linearGradient id="grad2_4" x1="0%" y1="0%" x2="100%" y2="100%"><stop offset="30%" stop-color="#ea9390" stop-opacity="1"></stop><stop offset="70%" stop-color="#e57d78" stop-opacity="1"></stop></linearGradient></defs><defs><linearGradient id="grad2_5" x1="0%" y1="0%" x2="100%" y2="100%"><stop offset="30%" stop-color="#df6661" stop-opacity="1"></stop><stop offset="70%" stop-color="#e57d78" stop-opacity="1"></stop></linearGradient></defs><defs><linearGradient id="grad2_6" x1="0%" y1="0%" x2="100%" y2="100%"><stop offset="30%" stop-color="#df6661" stop-opacity="1"></stop><stop offset="70%" stop-color="#d74d49" stop-opacity="1"></stop></linearGradient></defs><defs><linearGradient id="grad2_7" x1="0%" y1="0%" x2="100%" y2="100%"><stop offset="30%" stop-color="#cd3131" stop-opacity="1"></stop><stop offset="70%" stop-color="#d74d49" stop-opacity="1"></stop></linearGradient></defs><g transform="translate(1000, 0)"><path d="M0 707.1C-88.9 682.8 -177.8 658.6 -257.5 621.8C-337.3 585 -407.8 535.6 -477.3 477.3C-546.8 419 -615.2 351.6 -653.3 270.6C-691.4 189.6 -699.3 94.8 -707.1 0L0 0Z" fill="#d2403d"></path><path d="M0 618.7C-77.8 597.5 -155.6 576.3 -225.4 544C-295.1 511.8 -356.8 468.7 -417.6 417.6C-478.4 366.6 -538.3 307.7 -571.6 236.8C-605 165.9 -611.8 82.9 -618.7 0L0 0Z" fill="#db5a55"></path><path d="M0 530.3C-66.7 512.1 -133.4 493.9 -193.2 466.3C-253 438.7 -305.9 401.7 -358 358C-410.1 314.2 -461.4 263.7 -490 202.9C-518.6 142.2 -524.4 71.1 -530.3 0L0 0Z" fill="#e2716c"></path><path d="M0 441.9C-55.6 426.8 -111.1 411.6 -161 388.6C-210.8 365.6 -254.9 334.8 -298.3 298.3C-341.7 261.9 -384.5 219.8 -408.3 169.1C-432.1 118.5 -437 59.2 -441.9 0L0 0Z" fill="#e88884"></path><path d="M0 353.6C-44.5 341.4 -88.9 329.3 -128.8 310.9C-168.6 292.5 -203.9 267.8 -238.6 238.6C-273.4 209.5 -307.6 175.8 -326.6 135.3C-345.7 94.8 -349.6 47.4 -353.6 0L0 0Z" fill="#ec9e9c"></path><path d="M0 265.2C-33.3 256.1 -66.7 247 -96.6 233.2C-126.5 219.4 -152.9 200.9 -179 179C-205 157.1 -230.7 131.9 -245 101.5C-259.3 71.1 -262.2 35.5 -265.2 0L0 0Z" fill="#eeb4b3"></path><path d="M0 176.8C-22.2 170.7 -44.5 164.6 -64.4 155.4C-84.3 146.2 -102 133.9 -119.3 119.3C-136.7 104.7 -153.8 87.9 -163.3 67.6C-172.9 47.4 -174.8 23.7 -176.8 0L0 0Z" fill="#efcaca"></path><path d="M0 88.4C-11.1 85.4 -22.2 82.3 -32.2 77.7C-42.2 73.1 -51 67 -59.7 59.7C-68.3 52.4 -76.9 44 -81.7 33.8C-86.4 23.7 -87.4 11.8 -88.4 0L0 0Z" fill="#efd5d5"></path></g><g transform="translate(0, 1000)"><path d="M0 -707.1C103 -708 206 -708.8 270.6 -653.3C335.2 -597.7 361.6 -485.7 413.7 -413.7C465.8 -341.6 543.6 -309.5 596.8 -247.2C650 -184.9 678.6 -92.5 707.1 0L0 0Z" fill="#d2403d"></path><path d="M0 -618.7C90.1 -619.5 180.2 -620.2 236.8 -571.6C293.3 -523 316.4 -425 362 -362C407.5 -298.9 475.7 -270.8 522.2 -216.3C568.8 -161.8 593.7 -80.9 618.7 0L0 0Z" fill="#db5a55"></path><path d="M0 -530.3C77.2 -531 154.5 -531.6 202.9 -490C251.4 -448.3 271.2 -364.3 310.2 -310.2C349.3 -256.2 407.7 -232.1 447.6 -185.4C487.5 -138.7 508.9 -69.3 530.3 0L0 0Z" fill="#e2716c"></path><path d="M0 -441.9C64.4 -442.5 128.7 -443 169.1 -408.3C209.5 -373.6 226 -303.6 258.5 -258.5C291.1 -213.5 339.8 -193.4 373 -154.5C406.3 -115.6 424.1 -57.8 441.9 0L0 0Z" fill="#e88884"></path><path d="M0 -353.6C51.5 -354 103 -354.4 135.3 -326.6C167.6 -298.9 180.8 -242.9 206.8 -206.8C232.9 -170.8 271.8 -154.7 298.4 -123.6C325 -92.5 339.3 -46.2 353.6 0L0 0Z" fill="#ec9e9c"></path><path d="M0 -265.2C38.6 -265.5 77.2 -265.8 101.5 -245C125.7 -224.1 135.6 -182.1 155.1 -155.1C174.7 -128.1 203.9 -116.1 223.8 -92.7C243.8 -69.3 254.5 -34.7 265.2 0L0 0Z" fill="#eeb4b3"></path><path d="M0 -176.8C25.7 -177 51.5 -177.2 67.6 -163.3C83.8 -149.4 90.4 -121.4 103.4 -103.4C116.4 -85.4 135.9 -77.4 149.2 -61.8C162.5 -46.2 169.6 -23.1 176.8 0L0 0Z" fill="#efcaca"></path><path d="M0 -88.4C12.9 -88.5 25.7 -88.6 33.8 -81.7C41.9 -74.7 45.2 -60.7 51.7 -51.7C58.2 -42.7 68 -38.7 74.6 -30.9C81.3 -23.1 84.8 -11.6 88.4 0L0 0Z" fill="#efd5d5"></path></g></svg>