<?xml version="1.0" encoding="UTF-8" standalone="no"?>
<!-- Created with Inkscape (http://www.inkscape.org/) -->

<svg
   width="56.654861mm"
   height="42.562393mm"
   viewBox="0 0 56.654861 42.562393"
   version="1.1"
   id="svg5"
   xml:space="preserve"
   xmlns="http://www.w3.org/2000/svg"
   xmlns:svg="http://www.w3.org/2000/svg"><defs
     id="defs2" /><g
     id="layer1"
     transform="translate(-74.659838,-124.09593)"><path
       style="fill:#000000;stroke-width:0.264583"
       d="m 83.066581,165.82315 c -0.09701,-0.097 -0.176389,-1.76083 -0.176389,-3.69738 0,-3.52098 0,-3.52098 -0.727605,-3.90207 -3.513006,-1.84 -5.162121,-11.52204 -2.760955,-16.2097 0.657108,-1.28284 0.521338,-1.41446 -1.458999,-1.41446 -3.332511,0 -4.528425,-4.62781 -1.690188,-6.5405 0.779462,-0.52528 1.227915,-0.60325 3.469477,-0.60325 2.951686,0 3.011515,-0.0368 3.459793,-2.12703 1.356578,-6.32551 3.724089,-7.20721 19.419935,-7.23229 15.98769,-0.0255 18.43222,0.82088 19.83163,6.86671 0.60381,2.60861 0.19529,2.33761 3.7581,2.49301 6.03008,0.26302 7.14138,7.14335 1.15378,7.14335 -1.60029,0 -1.6809,0.11349 -1.00984,1.42182 0.61872,1.2063 1.17973,7.89653 0.85614,10.20994 -0.353,2.52381 -1.52968,4.56436 -3.31226,5.74402 -1.03693,0.6862 -1.03693,0.6862 -1.03693,4.19461 0,4.14305 0.31144,3.82961 -3.80518,3.82961 -3.71271,0 -3.60315,0.10652 -3.60315,-3.50318 0,-2.86817 0,-2.86817 -4.16719,-2.65906 -5.26052,0.26398 -11.446504,0.26663 -16.801038,0.007 -4.167187,-0.20189 -4.167187,-0.20189 -4.167187,2.65907 0,3.14092 -5.079174,5.47233 -7.231944,3.31956 z m 5.247569,-3.92465 c 0,-2.2511 -1.938494,-3.65532 -3.615379,-2.61895 -0.267701,0.16545 -0.298623,4.70217 -0.03385,4.96693 1.348597,1.3486 3.649233,-0.13167 3.649233,-2.34798 z m 32.52211,2.35294 c 0.44464,-0.17063 0.64672,-4.71029 0.22008,-4.94392 -1.88135,-1.03024 -3.77032,0.28331 -3.77032,2.6218 0,2.49151 1.1495,3.24337 3.55024,2.32212 z m -5.22866,-6.33429 c 9.09649,-0.68344 10.01579,-1.60099 9.83888,-9.82005 -0.17053,-7.9228 1.98657,-7.23298 -22.61784,-7.23298 -24.249726,0 -22.200946,-0.57524 -22.616334,6.35 -0.373377,6.22484 0.526656,8.69692 3.603927,9.89876 2.804064,1.09513 21.593437,1.57048 31.791367,0.80427 z m -30.869453,-6.9596 c -4.20108,-2.23246 -1.6366,-8.57783 2.915528,-7.21398 3.369571,1.00955 3.619812,5.97702 0.369512,7.33508 -1.196594,0.49997 -2.184852,0.46354 -3.28504,-0.1211 z m 2.970288,-1.72289 c 0.24894,-0.18913 0.576362,-0.66934 0.727604,-1.06714 0.783036,-2.05954 -1.629752,-3.64515 -3.326232,-2.1859 -1.905887,1.63938 0.597603,4.77332 2.598628,3.25304 z m 29.974465,1.8393 c -3.19574,-1.42036 -2.90985,-6.33996 0.42651,-7.33956 2.61416,-0.78322 4.99745,1.0406 4.99745,3.82433 0,2.77102 -2.88767,4.64249 -5.42396,3.51523 z m 2.91149,-2.0739 c 0.97812,-0.8414 0.9896,-2.19153 0.0257,-3.02066 -0.94132,-0.80968 -2.01794,-0.79357 -2.80287,0.0419 -1.82718,1.94495 0.75693,4.71658 2.77718,2.97872 z m -26.836524,-11.7266 c 2.112802,-2.01261 2.697546,-2.25992 3.254024,-1.37626 0.236888,0.37617 0.08981,0.65874 -0.831537,1.59752 -1.774351,1.80793 -1.989398,1.75019 6.607057,1.77405 7.72639,0.0214 7.72639,0.0214 9.75748,-1.99773 1.64579,-1.63613 2.13756,-1.98538 2.59236,-1.84103 0.88304,0.28027 0.68832,1.23395 -0.4861,2.38074 -1.44641,1.41238 -1.3212,1.46591 3.42862,1.46591 5.05074,0 4.72517,0.44873 3.48896,-4.80877 -1.99077,-8.4666 -2.62968,-8.77108 -18.43791,-8.78682 -13.809279,-0.0138 -16.863421,0.77907 -17.978877,4.66708 -0.804368,2.8037 -2.00908,8.4306 -1.857492,8.67588 0.865968,1.40116 8.494624,0.12486 10.463415,-1.75057 z m -12.022595,0.15112 c 0.578923,-2.48695 0.661132,-2.38125 -1.852106,-2.38125 -2.685818,0 -3.607556,0.50928 -3.607556,1.99327 0,2.58841 4.866925,2.93426 5.459662,0.38798 z m 47.024449,1.03913 c 2.04875,-1.61156 0.58042,-3.42038 -2.77653,-3.42038 -2.54178,0 -2.85656,0.57568 -1.81406,3.31765 0.34425,0.90546 3.48084,0.97565 4.59059,0.10273 z"
       id="path356" /><path
       style="fill:#000000;stroke-width:0.264583"
       id="path617"
       d="m 96.380928,147.09583 c 0.531509,3.73456 3.875732,7.04477 7.731352,7.0513 1.61886,-0.0707 3.03356,-1.11712 4.03889,-2.32418 0.93667,-1.16565 1.58385,-2.58016 1.82462,-4.05343 -0.27452,-0.9764 -1.33455,-0.26967 -1.304,0.48351 -0.25327,0.95826 -0.44303,1.96933 -1.11562,2.74345 -1.12118,1.64645 -3.37027,2.70135 -5.29926,1.89143 -1.81729,-0.64669 -3.377463,-2.00478 -4.18607,-3.76624 -0.416481,-0.71108 -0.348965,-1.70781 -1.085462,-2.20849 -0.21683,-0.13714 -0.476816,-0.0163 -0.60445,0.18265 z" /></g></svg>
